<svg width="11" height="21" viewBox="0 0 11 21" fill="none" xmlns="http://www.w3.org/2000/svg">
<path d="M8.70358 10.3517L0.211584 19.0737C0.141668 19.1439 0.0863939 19.2274 0.0489597 19.3192C0.0115255 19.4109 -0.00732597 19.5092 -0.00650215 19.6083C-0.00567833 19.7075 0.0148039 19.8054 0.0537586 19.8966C0.0927133 19.9877 0.149367 20.0702 0.220442 20.1393C0.291517 20.2085 0.375601 20.2628 0.467829 20.2992C0.560057 20.3357 0.658599 20.3534 0.75775 20.3515C0.8569 20.3497 0.954691 20.3281 1.04547 20.2882C1.13624 20.2483 1.21819 20.1908 1.28658 20.1191L10.2866 10.8744C10.4228 10.7344 10.499 10.5469 10.499 10.3517C10.499 10.1565 10.4228 9.96892 10.2866 9.82899L1.28658 0.584316C1.21819 0.512545 1.13624 0.455042 1.04547 0.415134C0.954691 0.375227 0.8569 0.353707 0.75775 0.35182C0.658599 0.349933 0.560057 0.367717 0.467829 0.404142C0.375601 0.440568 0.291517 0.494912 0.220442 0.56403C0.149367 0.633147 0.0927133 0.715668 0.0537586 0.806812C0.0148039 0.897957 -0.00567833 0.995916 -0.00650215 1.09502C-0.00732597 1.19413 0.0115255 1.29242 0.0489597 1.3842C0.0863939 1.47598 0.141668 1.55943 0.211584 1.62971L8.70358 10.3517Z" fill="#9C4B00"/>
</svg>
