<svg width="21" height="17" viewBox="0 0 21 17" fill="none" xmlns="http://www.w3.org/2000/svg">
<path d="M17.6031 13.2358C18.1177 12.6564 18.4708 11.9874 18.6364 11.278C18.802 10.5686 18.7759 9.8371 18.5599 9.13735C18.344 8.43761 17.9438 7.78752 17.3887 7.23508C16.8337 6.68263 16.1381 6.24192 15.3532 5.94547C15.1823 5.11925 14.7894 4.33663 14.2043 3.65708C13.6193 2.97753 12.8576 2.41893 11.9771 2.02372C11.0966 1.62851 10.1204 1.40709 9.12269 1.37628C8.12501 1.34548 7.1321 1.50609 6.21939 1.84593C5.30669 2.18577 4.49821 2.69589 3.85539 3.33752C3.21256 3.97916 2.7523 4.73543 2.50959 5.54887C2.26687 6.36232 2.24808 7.21153 2.45464 8.03199C2.6612 8.85245 3.08768 9.62257 3.70168 10.2838L2.56034 11.2356C2.4464 11.3326 2.36922 11.4558 2.33853 11.5896C2.30784 11.7234 2.32502 11.8618 2.3879 11.9874C2.4495 12.1134 2.55411 12.2212 2.68854 12.2973C2.82298 12.3734 2.98122 12.4144 3.14332 12.4151H7.81544C8.28072 13.239 9.01429 13.9354 9.93123 14.4237C10.8482 14.9119 11.911 15.1721 12.9966 15.174H17.9233C18.0854 15.1733 18.2436 15.1323 18.3781 15.0562C18.5125 14.9801 18.6171 14.8723 18.6787 14.7463C18.7416 14.6207 18.7588 14.4823 18.7281 14.3485C18.6974 14.2147 18.6202 14.0915 18.5063 13.9945L17.6031 13.2358ZM7.24887 10.3459C7.25 10.5769 7.27196 10.8074 7.31456 11.0356H5.1222L5.40959 10.8011C5.48655 10.737 5.54763 10.6607 5.58932 10.5767C5.63101 10.4926 5.65247 10.4025 5.65247 10.3114C5.65247 10.2204 5.63101 10.1302 5.58932 10.0462C5.54763 9.96212 5.48655 9.88583 5.40959 9.82171C4.9494 9.4394 4.58458 8.98387 4.33644 8.48173C4.0883 7.9796 3.96184 7.44096 3.96443 6.89729C3.96443 5.79973 4.48349 4.74713 5.40742 3.97104C6.33135 3.19495 7.58446 2.75895 8.89109 2.75895C9.91065 2.7538 10.9065 3.01717 11.7386 3.51203C12.5708 4.00689 13.1974 4.70836 13.5304 5.51784H12.9966C11.4722 5.51784 10.0103 6.02651 8.93236 6.93195C7.85444 7.83738 7.24887 9.06542 7.24887 10.3459ZM15.9034 13.7945L15.9444 13.829H12.9966C12.0469 13.8276 11.1271 13.5496 10.394 13.0424C9.66086 12.5353 9.15974 11.8303 8.97599 11.0476C8.79225 10.2649 8.93724 9.45288 9.38628 8.7499C9.83532 8.04692 10.5606 7.49645 11.4386 7.19228C12.3166 6.88811 13.293 6.84904 14.2015 7.08174C15.1099 7.31443 15.8942 7.8045 16.4208 8.46844C16.9473 9.13239 17.1836 9.92914 17.0892 10.723C16.9949 11.5168 16.5758 12.2586 15.9034 12.822C15.7487 12.9494 15.6601 13.1229 15.657 13.3048C15.6575 13.3961 15.6795 13.4863 15.7218 13.5704C15.7641 13.6545 15.8258 13.7306 15.9034 13.7945Z" fill="black"/>
</svg>
