<svg width="16" height="13" viewBox="0 0 16 13" fill="none" xmlns="http://www.w3.org/2000/svg">
<path d="M1.50004 1.18004L2.35337 0.333374L13.5 11.48L12.6534 12.3334L10.6 10.28C9.83337 10.5334 9.02004 10.6667 8.16671 10.6667C4.83337 10.6667 1.98671 8.59337 0.833374 5.66671C1.29337 4.49337 2.02671 3.46004 2.96004 2.64004L1.50004 1.18004ZM8.16671 3.66671C8.69714 3.66671 9.20585 3.87742 9.58092 4.25249C9.95599 4.62757 10.1667 5.13627 10.1667 5.66671C10.167 5.89375 10.1287 6.1192 10.0534 6.33337L7.50004 3.78004C7.71422 3.7047 7.93966 3.66637 8.16671 3.66671ZM8.16671 0.666707C11.5 0.666707 14.3467 2.74004 15.5 5.66671C14.9559 7.04884 14.0313 8.24852 12.8334 9.12671L11.8867 8.17337C12.8086 7.53563 13.5522 6.67274 14.0467 5.66671C13.5077 4.56667 12.671 3.63989 11.6316 2.99171C10.5921 2.34353 9.39168 1.99996 8.16671 2.00004C7.44004 2.00004 6.72671 2.12004 6.06004 2.33337L5.03337 1.31337C5.99337 0.900041 7.05337 0.666707 8.16671 0.666707ZM2.28671 5.66671C2.82567 6.76675 3.66242 7.69353 4.70186 8.3417C5.7413 8.98988 6.94173 9.33345 8.16671 9.33337C8.62671 9.33337 9.08004 9.28671 9.50004 9.19337L7.98004 7.66671C7.51615 7.61698 7.08326 7.40996 6.75336 7.08006C6.42346 6.75016 6.21643 6.31727 6.16671 5.85337L3.90004 3.58004C3.24004 4.14671 2.68671 4.85337 2.28671 5.66671Z" fill="#B6B6B6"/>
</svg>
