<svg width="85" height="85" viewBox="0 0 85 85" fill="none" xmlns="http://www.w3.org/2000/svg">
<circle cx="42.5" cy="42.5" r="42" stroke="#FF7A00"/>
<path d="M43.1535 57.468L43.3628 57.2588C48.5383 52.5728 52.8682 48.6497 55.9002 45.1071C58.9291 41.5682 60.74 38.3235 60.74 34.9891C60.74 30.3532 57.2461 26.8597 52.61 26.8597C49.1786 26.8597 45.8303 29.0025 44.4944 32.0041H41.1056C39.7697 29.0025 36.4214 26.8597 32.99 26.8597C28.3539 26.8597 24.86 30.3532 24.86 34.9891C24.86 38.3235 26.6709 41.5681 29.697 45.107C32.725 48.6481 37.0473 52.5697 42.2094 57.2533L42.2239 57.2664L42.2242 57.2668L42.4637 57.4844L42.8164 57.8051L43.1535 57.468ZM42.4206 27.8597L42.8 28.3017L43.1794 27.8597C45.4641 25.1979 48.9679 23.5 52.61 23.5C59.0489 23.5 64.1 28.5302 64.1 34.9891C64.1 38.9337 62.3255 42.5621 59.1035 46.5037C55.876 50.4521 51.2485 54.6534 45.6251 59.7522L45.6244 59.7529L42.8 62.3239L39.9756 59.7529L39.9749 59.7522C34.3515 54.6534 29.724 50.4521 26.4965 46.5037C23.2745 42.5621 21.5 38.9337 21.5 34.9891C21.5 28.5302 26.5511 23.5 32.99 23.5C36.6321 23.5 40.1359 25.1979 42.4206 27.8597Z" fill="#FF7A00" stroke="#FF7A00"/>
</svg>
