<svg width="23" height="22" viewBox="0 0 23 22" fill="none" xmlns="http://www.w3.org/2000/svg">
<path d="M10.1691 19.2148L10.1684 19.2141C7.19729 16.5199 4.7714 14.3165 3.08244 12.2502C1.39898 10.1906 0.5 8.32837 0.5 6.325C0.5 3.04824 3.05855 0.5 6.325 0.5C8.17485 0.5 9.95856 1.36373 11.1206 2.71764L11.5 3.15971L11.8794 2.71764C13.0414 1.36373 14.8252 0.5 16.675 0.5C19.9415 0.5 22.5 3.04824 22.5 6.325C22.5 8.32837 21.601 10.1906 19.9176 12.2502C18.2286 14.3165 15.8027 16.5199 12.8316 19.2141L12.8309 19.2148L11.5 20.4263L10.1691 19.2148Z" stroke="#FF7A00"/>
</svg>
