<svg width="25" height="20" viewBox="0 0 25 20" fill="none" xmlns="http://www.w3.org/2000/svg">
<path d="M16.786 16.6074V11.0359H9.018C8.79067 11.0359 8.57264 10.9456 8.4119 10.7848C8.25115 10.6241 8.16084 10.4061 8.16084 10.1787C8.16084 9.95139 8.25115 9.73337 8.4119 9.57263C8.57264 9.41188 8.79067 9.32157 9.018 9.32157H16.786V3.75005C16.7851 2.95465 16.4688 2.19207 15.9064 1.62963C15.3439 1.0672 14.5813 0.750851 13.7859 0.75H3.50005C2.70465 0.750851 1.94207 1.0672 1.37963 1.62963C0.8172 2.19207 0.500851 2.95465 0.5 3.75005V16.6074C0.500851 17.4028 0.8172 18.1654 1.37963 18.7278C1.94207 19.2903 2.70465 19.6066 3.50005 19.6075H13.7859C14.5813 19.6066 15.3439 19.2903 15.9064 18.7278C16.4688 18.1654 16.7851 17.4028 16.786 16.6074ZM21.5737 11.0359L18.7516 13.8586C18.5976 14.0207 18.513 14.2365 18.5159 14.46C18.5187 14.6835 18.6088 14.897 18.7669 15.0551C18.9249 15.2132 19.1385 15.3032 19.362 15.3061C19.5855 15.3089 19.8013 15.2244 19.9634 15.0704L24.2491 10.7846C24.4098 10.6239 24.5 10.406 24.5 10.1787C24.5 9.95149 24.4098 9.73356 24.2491 9.57282L19.9634 5.28704C19.8013 5.13308 19.5855 5.04851 19.362 5.05137C19.1385 5.05423 18.9249 5.1443 18.7669 5.30236C18.6088 5.46042 18.5187 5.67397 18.5159 5.89749C18.513 6.121 18.5976 6.33679 18.7516 6.49884L21.5737 9.32157H16.786V11.0359H21.5737Z" fill="#FF7A00"/>
</svg>
