<svg width="21" height="17" viewBox="0 0 21 17" fill="none" xmlns="http://www.w3.org/2000/svg">
<path d="M14.0859 4.83171L14.2023 5.0071L14.4091 5.04642L19.6075 6.03499C19.7367 6.05964 19.8505 6.11261 19.9392 6.18301C20.0275 6.25314 20.0858 6.33624 20.1167 6.41964C20.1472 6.50226 20.1521 6.58785 20.1322 6.67053L20.6185 6.78711L20.1322 6.67054C20.1123 6.75383 20.066 6.83874 19.9895 6.914L16.4459 10.395L16.2716 10.5663L16.2996 10.8091L16.8359 15.4537L16.8359 15.4538C16.8455 15.5366 16.8308 15.6224 16.7889 15.7046C16.7466 15.7876 16.6759 15.8676 16.5764 15.9311C16.4767 15.9947 16.3546 16.0372 16.2221 16.0496C16.0896 16.062 15.957 16.0434 15.839 15.9977L15.8389 15.9977L10.9716 14.1146L10.7912 14.0448L10.6108 14.1146L5.74346 15.9977L5.74337 15.9977C5.62534 16.0434 5.49278 16.062 5.36025 16.0496C5.22771 16.0372 5.10566 15.9947 5.00593 15.9311C4.90644 15.8676 4.83575 15.7876 4.79343 15.7046C4.75153 15.6224 4.73683 15.5366 4.7464 15.4538L4.74641 15.4537L5.28276 10.8091L5.3108 10.5663L5.13641 10.395L1.59272 6.91467L1.59257 6.91453C1.51586 6.83925 1.46948 6.75428 1.44944 6.67092C1.42955 6.58818 1.43437 6.50252 1.46494 6.41984C1.49581 6.33638 1.55416 6.25322 1.64257 6.18305C1.73132 6.11261 1.84525 6.05964 1.9746 6.03504L7.17329 5.04642L7.38008 5.0071L7.49648 4.83171L10.1734 0.798298C10.2276 0.716647 10.3104 0.641333 10.4198 0.58615C10.5294 0.530896 10.6576 0.5 10.7912 0.5C10.9247 0.5 11.053 0.530896 11.1625 0.58615C11.2719 0.641333 11.3548 0.716647 11.409 0.798298L14.0859 4.83171Z" fill="white" stroke="#FFD439"/>
</svg>
