<svg width="22" height="24" viewBox="0 0 22 24" fill="none" xmlns="http://www.w3.org/2000/svg">
<path d="M9.84565 1.42686C9.96331 1.20338 10.1319 1.01795 10.3345 0.889079C10.5371 0.760203 10.7667 0.692383 11.0004 0.692383C11.2341 0.692383 11.4637 0.760203 11.6663 0.889079C11.8689 1.01795 12.0375 1.20338 12.1552 1.42686L15.1436 7.10493L20.9473 8.49664C21.1756 8.55155 21.3869 8.67173 21.5601 8.8452C21.7334 9.01867 21.8625 9.23937 21.9347 9.4853C22.0068 9.73123 22.0195 9.9938 21.9714 10.2468C21.9232 10.4999 21.816 10.7345 21.6605 10.9274L17.7044 15.828L18.3031 22.3664C18.3267 22.6238 18.2889 22.8837 18.1935 23.1199C18.098 23.3561 17.9482 23.5605 17.759 23.7126C17.5699 23.8647 17.348 23.9592 17.1155 23.9867C16.883 24.0142 16.6481 23.9738 16.4341 23.8693L11.0004 21.2185L5.56666 23.8693C5.35273 23.9738 5.11779 24.0142 4.88531 23.9867C4.65282 23.9592 4.43092 23.8647 4.24177 23.7126C4.05261 23.5605 3.90282 23.3561 3.80734 23.1199C3.71187 22.8837 3.67405 22.6238 3.69768 22.3664L4.29643 15.828L0.340347 10.9286C0.184485 10.7357 0.0770589 10.501 0.0287928 10.2478C-0.0194733 9.99459 -0.00689051 9.73181 0.0652849 9.48569C0.13746 9.23957 0.266703 9.01871 0.440111 8.84515C0.613518 8.6716 0.825024 8.55143 1.05351 8.49664L6.8572 7.10493L9.84565 1.42686Z" fill="#FFD439"/>
</svg>
