<svg width="40" height="40" viewBox="0 0 40 40" fill="none" xmlns="http://www.w3.org/2000/svg">
<path d="M32.1341 30.3656C32.2502 30.4817 32.3424 30.6196 32.4052 30.7713C32.4681 30.9231 32.5004 31.0857 32.5004 31.25C32.5004 31.4142 32.4681 31.5768 32.4052 31.7286C32.3424 31.8803 32.2502 32.0182 32.1341 32.1343C32.018 32.2505 31.8801 32.3426 31.7283 32.4055C31.5766 32.4683 31.414 32.5007 31.2497 32.5007C31.0855 32.5007 30.9228 32.4683 30.7711 32.4055C30.6194 32.3426 30.4815 32.2505 30.3653 32.1343L19.9997 21.7672L9.63409 32.1343C9.39954 32.3689 9.08142 32.5007 8.74972 32.5007C8.41801 32.5007 8.09989 32.3689 7.86534 32.1343C7.63079 31.8998 7.49902 31.5817 7.49902 31.25C7.49902 30.9183 7.63079 30.6001 7.86534 30.3656L18.2325 20L7.86534 9.63434C7.63079 9.39979 7.49902 9.08167 7.49902 8.74996C7.49902 8.41826 7.63079 8.10014 7.86534 7.86559C8.09989 7.63104 8.41801 7.49927 8.74972 7.49927C9.08142 7.49927 9.39954 7.63104 9.63409 7.86559L19.9997 18.2328L30.3653 7.86559C30.5999 7.63104 30.918 7.49927 31.2497 7.49927C31.5814 7.49927 31.8995 7.63104 32.1341 7.86559C32.3686 8.10014 32.5004 8.41826 32.5004 8.74996C32.5004 9.08167 32.3686 9.39979 32.1341 9.63434L21.7669 20L32.1341 30.3656Z" fill="#B6B6B6"/>
</svg>
